<?xml version="1.0" standalone="no"?>
<!DOCTYPE svg PUBLIC "-//W3C//DTD SVG 20010904//EN"
 "http://www.w3.org/TR/2001/REC-SVG-20010904/DTD/svg10.dtd">
<svg version="1.0" xmlns="http://www.w3.org/2000/svg"
 width="695.000000pt" height="695.000000pt" viewBox="0 0 695.000000 695.000000"
 preserveAspectRatio="xMidYMid meet">
<metadata>
Created by potrace 1.11, written by Peter Selinger 2001-2013
</metadata>
<g transform="translate(0.000000,695.000000) scale(0.100000,-0.100000)"
fill="#000000" stroke="none">
<path d="M2834 5858 c-72 -38 -70 -130 3 -167 32 -16 1252 -16 1288 1 27 12
55 54 55 83 0 27 -27 71 -52 82 -31 14 -1267 15 -1294 1z"/>
<path d="M2554 5850 c-12 -5 -31 -21 -44 -37 -20 -25 -21 -35 -16 -103 21
-247 146 -478 394 -728 98 -99 298 -265 372 -308 16 -10 30 -21 30 -24 0 -4
-57 -49 -127 -101 -124 -92 -345 -300 -415 -389 -314 -404 -338 -762 -75
-1155 151 -226 447 -492 725 -652 506 -291 845 -671 877 -983 10 -96 12 -106
26 -128 37 -59 137 -43 160 25 11 36 5 146 -12 189 -4 13 -7 24 -4 24 2 0 -7
30 -19 67 -64 187 -177 355 -361 538 -111 110 -287 255 -365 301 -16 10 -30
22 -30 26 0 4 21 22 48 39 231 158 493 422 608 614 117 195 163 406 129 600
-11 66 -61 207 -99 275 -147 272 -459 573 -794 767 -186 108 -250 152 -402
278 -109 90 -225 210 -300 310 -69 92 -145 238 -151 290 0 6 -5 17 -9 25 -5 9
-11 43 -15 75 -11 115 -16 130 -42 149 -30 22 -59 27 -89 16z m1020 -1372
c362 -245 614 -537 685 -790 95 -345 -146 -736 -686 -1108 l-91 -63 -88 58
c-350 233 -598 512 -685 770 -34 101 -34 270 0 370 73 212 230 412 496 632 55
45 264 193 273 193 3 0 46 -28 96 -62z"/>
<path d="M3024 4040 c-26 -10 -43 -31 -53 -68 -10 -34 13 -83 48 -101 13 -7
170 -11 466 -11 l447 0 29 29 c37 38 39 88 5 128 l-24 28 -449 1 c-247 0 -458
-2 -469 -6z"/>
<path d="M2874 3622 c-91 -15 -123 -89 -65 -154 l29 -32 642 0 643 0 28 32
c24 26 28 39 24 69 -3 21 -15 48 -29 62 l-25 24 -613 1 c-338 1 -623 0 -634
-2z"/>
<path d="M3024 3190 c-55 -22 -71 -99 -30 -147 l24 -28 462 0 462 0 24 28 c36
42 33 98 -7 131 l-31 26 -441 -1 c-243 0 -452 -4 -463 -9z"/>
<path d="M4345 5851 c-28 -12 -55 -45 -60 -72 -2 -13 -6 -52 -10 -86 -13 -131
-98 -312 -205 -438 -60 -71 -119 -133 -174 -184 -138 -129 -136 -127 -136
-164 0 -49 34 -88 83 -92 44 -4 83 24 218 156 252 248 383 486 405 738 8 82
-9 123 -57 140 -36 13 -37 13 -64 2z"/>
<path d="M3051 5439 c-54 -7 -81 -36 -81 -88 0 -44 25 -79 65 -89 23 -5 763
-8 881 -3 36 2 74 49 74 91 0 41 -36 89 -67 91 -85 4 -838 3 -872 -2z"/>
<path d="M3034 2213 c-114 -87 -288 -277 -371 -406 -117 -180 -189 -405 -168
-527 13 -71 100 -98 153 -47 23 22 29 37 31 79 11 235 155 474 439 728 77 69
96 105 78 151 -11 31 -54 59 -89 59 -13 0 -46 -17 -73 -37z"/>
<path d="M3053 1800 c-17 -3 -43 -15 -57 -27 -55 -48 -19 -151 53 -154 81 -3
850 -3 868 0 38 6 73 49 73 91 0 45 -39 90 -79 91 -152 3 -834 3 -858 -1z"/>
<path d="M2823 1360 c-60 -36 -49 -143 18 -160 13 -4 304 -7 644 -7 500 0 625
2 647 13 36 19 54 74 38 115 -25 60 -9 59 -692 59 -600 0 -624 -1 -655 -20z"/>
</g>
</svg>
