<?xml version="1.0" encoding="utf-8"?><svg xmlns="http://www.w3.org/2000/svg" width="923" height="703"><path fill="#E12726" d="M0 0h923v703H0z"/><path fill="#FFF" fill-rule="evenodd" d="M798.593 315.43c-7.6 2.26-16.02 4.32-19.72 4.32 4.93-9.25 11.1-16.65 17.26-22.61 3.7-3.7 9.86-8.42 16.03-8.42 5.34 0 7.6 2.26 7.6 7.4 0 9.86-10.28 15.82-21.17 19.31zm10.689 33.3c1.23-1.65-1.029-3.91-2.67-1.65-5.14 5.76-14.18 13.359-23.83 13.359-8.219 0-12.949-5.549-12.949-14.59 0-6.78 3.5-15.41 6.17-19.729 5.96-1.23 17.87-3.91 23.62-5.55 19.521-5.96 30.61-12.74 30.61-25.28 0-8.63-5.951-11.71-13.971-11.71-23.619 0-58.96 33.7-58.96 65.76 0 10.28 6.58 18.29 17.88 18.29 14.791 0 26.501-9.04 34.1-18.9zm9.25-219.49c.82 0 1.841-.61 1.641-1.85l-3.5-23.83c-.41-1.65-1.02-2.06-2.05-2.06-.62 0-1.229.41-1.851 1.44-1.029 2.05-2.67 3.9-5.75 3.9-5.34 0-10.27-3.9-23.01-3.9-16.64 0-38.62 7.19-38.62 31.24 0 24.04 19.311 32.06 35.95 38.01 17.46 6.38 31.43 11.31 31.43 29.39 0 20.35-14.379 26.92-27.939 26.92-15 0-32.66-7.19-39.03-30.82-.621-2.06-1.23-2.47-2.67-2.47-1.23 0-2.26.82-2.26 3.08v30.63c0 1.84 1.029 2.67 2.049 2.67.82 0 1.65-.62 2.061-1.44 1.23-1.85 2.67-3.5 6.161-3.5 6.779 0 14.789 8.22 34.31 8.22 17.05 0 46.02-5.34 46.02-39.04 0-13.36-5.55-30.62-38.01-39.66-23.01-6.38-30.41-16.03-30.41-27.95 0-10.07 5.96-19.94 22.601-19.94 8.22 0 21.569 2.26 30.609 19.729 1.029 1.231 1.649 1.231 2.268 1.231zm-98.82-5.75c2.46 0 4.931-.62 5.34-1.03-.21 3.5-3.29 8.84-11.71 10.48-.62.21-1.23.83-1.23 1.65s.61 1.64 1.851 1.64c12.319 0 19.31-11.1 19.31-20.34 0-8.22-5.549-13.16-12.33-13.16-4.93 0-11.299 2.47-11.299 10.48-.001 7.4 5.338 10.28 10.068 10.28zm21.569 170.57c0 5.14-2.049 12.13-6.369 19.73-8.42 13.56-15 16.23-20.75 16.23-4.93 0-6.98-3.9-6.98-9.65 0-4.94 2.051-11.51 5.95-17.27 5.761-9.04 13.771-16.64 20.96-16.64 4.721 0 7.189 2.46 7.189 7.6zm-39.239 106.251c-19.72 0-25.681-11.511-25.681-17.061 0-5.34 2.061-8.84 7.601-12.54 3.7-2.67 9.25-5.34 13.56-6.979 4.931 2.049 12.121 6.369 14.59 8.629 10.681 7.4 12.73 11.711 12.73 15.621 0 9.859-15.199 12.33-22.8 12.33zm62.451-109.331c2.06 0 4.109-1.03 4.109-4.73 0-3.29-3.08-4.31-5.959-4.31-3.281 0-7.391.82-11.711 3.69-1.021.83-3.69 2.06-5.341 1.03-3.279-2.26-6.369-3.9-14.379-3.9-8.011 0-19.721 4.73-27.32 15-5.341 7.6-6.371 12.95-6.371 18.29s2.26 9.25 3.7 11.51c.41.61.61.82.61 1.44 0 1.23-1.641 2.05-4.311 2.87-4.72 1.65-12.74 6.17-12.74 14.39 0 5.34 4.32 10.48 9.041 13.77 0 0-9.86 2.671-17.67 6.99-6.16 3.28-12.94 8.631-12.94 16.021 0 8.64 7.399 22.61 37.601 22.61 17.67 0 28.76-6.371 33.07-11.301 3.289-3.699 3.699-8.02 3.699-10.689 0-9.66-10.68-18.7-22.391-25.28-7.6-4.31-18.489-9.45-18.489-17.05 0-2.06.61-4.11 2.67-5.35 1.44-1.02 3.7-1.64 6.159-1.64 3.291 0 7.601 1.03 10.681 1.03 9.66 0 22.601-3.29 30.819-20.35 2.061-4.73 3.08-9.66 3.08-13.77 0-5.34-.818-6.57-.818-9.04 0-2.05 2.06-3.29 6.16-3.29 5.551-.201 5.551 2.059 9.041 2.059zm-110.321 24.45c-7.6 2.26-15.82 4.32-19.72 4.32 5.14-9.25 11.3-16.65 17.46-22.61 3.699-3.7 9.859-8.42 16.029-8.42 5.131 0 7.601 2.26 7.601 7.4 0 9.86-10.271 15.82-21.37 19.31zm10.689 33.3c1.431-1.65-1.029-3.91-2.68-1.65-5.13 5.76-14.17 13.359-23.83 13.359-8.42 0-12.939-5.549-12.939-14.59 0-6.78 3.49-15.41 6.17-19.729 5.949-1.23 18.07-3.91 23.62-5.55 19.72-5.96 30.61-12.74 30.61-25.28 0-8.63-5.961-11.71-13.971-11.71-23.62 0-58.96 33.7-58.96 65.76 0 10.28 6.78 18.29 18.08 18.29 14.581 0 26.291-9.04 33.9-18.9zm-52.189-89.4c0 .62-.2 1.64-.82 2.67-14.379 31.44-28.76 62.68-42.729 94.12-.82 1.649-2.05 4.729-2.05 6.989 0 2.67 2.05 4.931 4.72 4.931 1.44 0 3.29-.61 4.521-1.021 7.81-3.09 16.029-11.72 20.959-19.119 1.021-1.641-.819-3.08-2.06-2.051-2.05 1.851-7.601 9.25-13.351 12.53-1.029.62-2.06.62-1.439-1.64l44.58-99.05c.82-1.85 1.029-2.88 1.029-3.91 0-1.23-.819-1.85-2.06-1.85-2.05 0-4.72.62-7.8.82-2.67.21-7.4.62-11.51.83-1.02 0-1.641 1.02-1.641 1.85 0 1.02.82 1.64 2.051 1.64 2.06 0 4.32 0 6.58.62.82.411 1.02 1.021 1.02 1.641zm78.48-68.43c0-10.9 8.01-11.92 15-12.54 2.67-.41 3.289-4.73-.621-4.73h-54.029c-3.7 0-3.7 4.94 0 5.14 10.68.62 19.311 2.67 19.311 12.95v19.52c0 4.32-2.051 7.4-4.521 9.04-9.44 7.81-21.36 8.43-28.351 8.43-34.31 0-49.709-29.59-49.709-59.19 0-24.04 12.119-61.65 51.77-61.65 35.54 0 48.279 23.02 52.59 31.85 1.439 2.68 4.73 2.06 4.73 0v-28.35c0-2.68-3.91-3.29-4.73 0-.82 3.28-2.88 5.34-5.55 5.34-2.05 0-4.72-1.65-5.75-2.26-10.681-6.78-20.95-12.13-41.29-12.13-32.87 0-73.34 16.439-73.34 66.38 0 50.35 38 65.97 71.279 65.97 32.67 0 49.931-16.65 53.011-18.7V190.9h.2zm-118.33 68.43c0 .62-.211 1.64-.82 2.67-14.381 31.44-28.76 62.68-42.731 94.12-.619 1.649-2.06 4.729-2.06 6.989 0 2.67 2.06 4.931 4.729 4.931 1.44 0 3.291-.61 4.521-1.021 7.801-3.09 16.021-11.72 20.951-19.119 1.029-1.641-.82-3.08-2.051-2.051-1.85 1.851-7.6 9.25-13.359 12.53-1.021.62-2.051.62-1.431-1.64l44.581-99.05c.82-1.85 1.02-2.88 1.02-3.91 0-1.23-.82-1.85-2.26-1.85-2.051 0-4.721.62-7.801.82-2.67.21-7.399.62-11.51.83-1.02 0-1.641 1.02-1.641 1.85 0 1.02.82 1.64 2.051 1.64 2.061 0 4.32 0 6.58.62 1.02.411 1.231 1.021 1.231 1.641zm-63.481 26.72c8.01 0 9.86 6.78 9.66 13.35 0 21.58-24.66 62.68-41.3 62.68-6.78 0-9.65-4.93-9.65-11.301 0-24.449 24.45-64.729 41.29-64.729zm-3.699-4.94c-24.031 0-46.011 30.21-46.011 61.25 0 12.74 5.75 25.271 21.36 25.271 24.65 0 44.99-35.34 44.99-57.54 0-13.971-3.291-28.981-20.339-28.981zm-85.871-177.97c-3.7 0-3.7 3.7-1.64 4.32 4.1.82 12.73 1.64 12.73 12.95.21 26.51.21 61.44-.82 89.8-.2 10.07-3.29 18.71-11.91 19.73-3.29.21-3.29 3.91-1.03 3.91h38.621c2.059 0 2.879-3.5.209-3.91-5.959-1.02-15.62-1.02-16.229-19.73-.82-18.29-1.44-87.13-1.44-87.13l96.76 107.68h8.011s0-100.69.621-108.3c.609-8.83 3.49-13.77 13.139-14.38 4.73-.41 3.91-4.73.621-4.73h-39.241c-4.72 0-3.49 4.32-1.439 4.32 4.319.61 17.67 2.05 18.289 15 .621 18.7 1.44 77.06 1.44 77.06l-86.08-96.38h-30.61v-.21zM454.28 291.8c1.031 0 1.851-.62 2.061-1.64l8.62-27.34c.62-1.64-.2-2.67-1.64-2.67-.61 0-1.23.21-1.85.82-1.641 1.65-3.49 3.29-5.131 3.29-.82 0-1.65-.61-2.47-1.23-7.6-9.45-19.93-10.89-25.88-10.89-27.331 0-50.951 17.88-64.721 39.87-8.42 12.94-12.73 27.33-12.73 41.51 0 22.6 15.61 35.14 35.95 35.14 9.04 0 16.02-1.03 28.35-6.17 2.67-1.02 5.75-2.26 7.6-2.26 3.08 0 3.29 4.529 3.49 8.64 0 1.64 1.03 2.05 2.06 2.05.82 0 1.64-.41 2.05-1.65l11.51-32.669c.82-2.67-.21-3.7-1.24-3.7-1.64 0-2.46.62-3.69 2.88-5.14 8.01-8.84 13.15-26.71 21.99-7.6 3.49-16.23 5.75-23.22 5.75-15.2 0-21.16-11.709-21.16-26.299 0-19.32 9.04-39.46 23.01-56.31 8.84-11.1 22.6-23.64 38.42-23.64 15.2 0 26.5 11.31 24.86 32.06-.209 1.648 1.032 2.468 2.461 2.468zm-69.02-78.5v-90.84c0-11.3 8.01-14.38 16.64-15 3.28 0 3.69-4.32-.62-4.32h-53.62c-3.7 0-4.31 4.11-.61 4.32 8.01.82 17.66 4.73 17.66 15v90.84c0 10.07-3.7 16.64-15.61 16.64-4.73 0-3.49 3.91 0 3.91h52.8c2.67 0 3.49-3.91-1.03-3.91-11.3 0-15.61-7.6-15.61-16.64zM258.5 122.67c0 3.29-1.03 6.16-2.46 7.6-4.93 9.25-11.92 19.11-21.99 30.62-25.67 28.77-59.98 62.68-71.69 70.49-3.7 2.67-4.73 0-4.73-2.67 0-2.06 0-52.82.82-85.49.83-32.68 25.27-33.291 31.64-33.91 6.57-.62 4.31-6.78.62-6.78H90.039c-4.31 0-4.72 6.37-1.03 6.37 23.63 0 32.67 14.59 32.88 25.28.61 15.61 1.431 157.83 0 191.53-1.24 32.67-21.58 33.7-30.2 34.319-5.76.41-5.76 6.371.61 6.371 3.7 0 30.61-.82 49.92-.82 22.4 0 35.95 0 54.03.82 5.34.209 3.08-6.99-.61-6.99-30.41 0-35.75-18.7-37.39-31.65-1.65-12.74-1.23-71.51-.62-78.5.62-7.4 6.99-5.34 9.66-3.7C182.28 255.63 273.91 366.4 273.91 366.4h73.96c4.31 0 3.28-6.17 0-6.371-12.74-1.029-24.66-2.058-41.71-16.029-16.43-13.36-111.14-126.18-111.14-126.18s42.121-44.39 74.78-74.4c31.64-28.97 49.301-33.29 53-34.32 3.911-1.02 3.291-6.78-2.05-6.37-8.63.41-26.3 1.03-38.62 1.03-21.37 0-39.24-1.439-42.94-1.439-5.75 0-6.98 6.37-.62 7.399 4.32.82 8.43 1.23 12.95 2.88 5.34 2.05 6.98 5.96 6.98 10.07zm454.021 288.12c-2.06 0-2.67 3.7.2 3.7 3.29 0 10.07.82 10.07 10.68l-.62 79.33c0 8.63-3.08 15.82-11.09 15.82-2.67 0-2.67 3.5-.62 3.5h33.081c2.049 0 2.049-3.5-.41-3.5-4.73 0-13.15-2.051-13.361-15.82l-.818-80.76s84.64 99.46 85.26 100.08h5.75l.62-95.36c0-9.45 4.109-14.38 14.38-14.38 2.05 0 2.05-3.29 0-3.29h-36.979c-2.061 0-2.061 3.29 0 3.29 3.699 0 15.199.609 15.41 12.949l.819 69.461-72.73-85.7h-28.962zm-102.099 55.69c0-28.971 13.35-51.17 38-51.17 21.98 0 38.62 21.17 38.62 51.17 0 36.99-14.99 53.229-38.62 53.229-23.01.001-38-22.199-38-53.229zm38 58.37c33.08 0 56.7-23.02 56.7-58.369 0-31.03-23.011-56.311-56.7-56.311-32.87 0-56.49 25.689-56.49 56.311 0 33.289 22.39 58.369 56.49 58.369zM490.03 426c0-10.279 5.961-10.689 19.721-10.689 24.04 0 48.481 11.92 48.481 50.14 0 37.2-20.331 53.021-47.251 53.021h-5.75c-7.19 0-15.201-1.431-15.201-15.611V426zm-27.729-15.83c-3.7 0-3.09 4.32-.829 4.32 4.319 0 11.51 2.05 11.51 10.68v80.561c0 8.629-2.061 13.979-12.121 13.979-2.469 0-2.469 4.11-.209 4.11h53.83c23.619 0 62.65-11.311 62.65-57.95 0-47.271-32.04-55.7-63.271-55.7h-51.56zm-133.131.62c-2.05 0-2.67 3.7.21 3.7 3.29 0 10.06.82 10.06 10.68l-.61 79.33c0 8.63-3.08 15.82-11.1 15.82-2.67 0-2.67 3.5-.61 3.5h33.07c2.06 0 2.06-3.5-.41-3.5-4.72 0-13.15-2.051-13.35-15.82l-.82-80.76s84.641 99.46 85.25 100.08h5.76l.61-95.36c0-9.45 4.11-14.38 14.379-14.38 2.061 0 2.061-3.29 0-3.29H414.63c-2.05 0-2.05 3.29 0 3.29 3.7 0 15.21.609 15.41 12.949l.82 69.461-72.72-85.7h-28.97zm-102.92 55.69c0-28.971 13.35-51.17 38-51.17 21.99 0 38.63 21.17 38.63 51.17 0 36.99-15 53.229-38.63 53.229-23.01.001-38-22.199-38-53.229zm38.21 58.37c33.07 0 56.7-23.02 56.7-58.369 0-31.03-23.01-56.311-56.7-56.311-32.87 0-56.5 25.689-56.5 56.311-.001 33.289 22.4 58.369 56.5 58.369zm554.684 61.03H99.899v15.62h719.245v-15.62zm0-21.78H99.899v6.78h719.245v-6.78zM98.259 410.99c-2.67 0-2.47 3.699 0 3.5 9.66 0 15.41 4.109 15.41 13.97v76.66c0 11.51-8.01 14.59-14.38 14.59-2.06 0-2.88 4.11.61 4.11h98.82l5.96-31.65c.61-3.08-2.67-3.29-3.5-1.23-8.83 25.48-26.91 27.74-46.01 27.74-19.73 0-24.25-3.289-24.25-12.33v-79.94c0-9.66 9.041-11.721 13.561-11.721 2.88 0 2.06-3.699-.2-3.699H98.259z" clip-rule="evenodd"/></svg>